<mxfile host="app.diagrams.net" modified="2021-02-08T12:38:56.673Z" agent="5.0 (Windows)" etag="gYNRAPvT2FC3mrgQs19-" version="14.2.9" type="github">
  <diagram name="Page-1" id="c7558073-3199-34d8-9f00-42111426c3f3">
    <mxGraphModel dx="3074" dy="791" grid="1" gridSize="10" guides="1" tooltips="1" connect="1" arrows="1" fold="1" page="1" pageScale="1" pageWidth="826" pageHeight="1169" background="#ffffff" math="0" shadow="0">
      <root>
        <mxCell id="0" />
        <mxCell id="1" parent="0" />
        <mxCell id="TVN_P2z2MHr8vJ2xY7u7-117" style="edgeStyle=orthogonalEdgeStyle;rounded=0;orthogonalLoop=1;jettySize=auto;html=1;entryX=0.5;entryY=0;entryDx=0;entryDy=0;" edge="1" parent="1" source="2" target="TVN_P2z2MHr8vJ2xY7u7-108">
          <mxGeometry relative="1" as="geometry" />
        </mxCell>
        <mxCell id="2" value="&lt;p style=&quot;margin: 0px ; margin-top: 4px ; text-align: center ; text-decoration: underline&quot;&gt;&lt;strong&gt;Process 1&lt;br&gt;&lt;/strong&gt;&lt;/p&gt;&lt;hr&gt;Define which FRSs&lt;div align=&quot;left&quot;&gt; should be automated&amp;nbsp; &lt;br&gt;&lt;/div&gt;" style="verticalAlign=middle;align=center;overflow=fill;fontSize=12;fontFamily=Helvetica;html=1;rounded=1;fontStyle=1;strokeWidth=3;fillColor=#E6FFCC" parent="1" vertex="1">
          <mxGeometry x="-426.5" y="236.5" width="136.5" height="90" as="geometry" />
        </mxCell>
        <mxCell id="TVN_P2z2MHr8vJ2xY7u7-109" style="edgeStyle=orthogonalEdgeStyle;rounded=0;orthogonalLoop=1;jettySize=auto;html=1;entryX=0.5;entryY=0;entryDx=0;entryDy=0;" edge="1" parent="1" source="4" target="2">
          <mxGeometry relative="1" as="geometry" />
        </mxCell>
        <mxCell id="4" value="Define" style="whiteSpace=wrap;align=center;verticalAlign=middle;fontStyle=0;strokeWidth=1;fillColor=#FFFFCC;" parent="1" vertex="1">
          <mxGeometry x="-403.25" y="120" width="90" height="60" as="geometry" />
        </mxCell>
        <mxCell id="TVN_P2z2MHr8vJ2xY7u7-100" value="" style="edgeStyle=none;noEdgeStyle=1;strokeColor=#990000;strokeWidth=2;exitX=1;exitY=0.5;exitDx=0;exitDy=0;entryX=0;entryY=0.5;entryDx=0;entryDy=0;" edge="1" parent="1" source="2" target="TVN_P2z2MHr8vJ2xY7u7-101">
          <mxGeometry width="100" height="100" relative="1" as="geometry">
            <mxPoint x="-260" y="399.69087987758223" as="sourcePoint" />
            <mxPoint x="-160" y="282" as="targetPoint" />
          </mxGeometry>
        </mxCell>
        <mxCell id="TVN_P2z2MHr8vJ2xY7u7-114" style="edgeStyle=orthogonalEdgeStyle;rounded=0;orthogonalLoop=1;jettySize=auto;html=1;" edge="1" parent="1" source="TVN_P2z2MHr8vJ2xY7u7-101" target="TVN_P2z2MHr8vJ2xY7u7-113">
          <mxGeometry relative="1" as="geometry" />
        </mxCell>
        <mxCell id="TVN_P2z2MHr8vJ2xY7u7-116" style="edgeStyle=orthogonalEdgeStyle;rounded=0;orthogonalLoop=1;jettySize=auto;html=1;" edge="1" parent="1" source="TVN_P2z2MHr8vJ2xY7u7-101" target="TVN_P2z2MHr8vJ2xY7u7-115">
          <mxGeometry relative="1" as="geometry" />
        </mxCell>
        <mxCell id="TVN_P2z2MHr8vJ2xY7u7-101" value="&lt;p style=&quot;margin: 0px ; margin-top: 4px ; text-align: center ; text-decoration: underline&quot;&gt;&lt;strong&gt;Process 2&lt;br&gt;&lt;/strong&gt;&lt;/p&gt;&lt;hr&gt;&lt;div&gt;Align sequence, &lt;br&gt;&lt;/div&gt;&lt;div&gt;availability for test, &lt;br&gt;&lt;/div&gt;&lt;div&gt;scheduling&lt;br&gt;&lt;/div&gt;" style="verticalAlign=middle;align=center;overflow=fill;fontSize=12;fontFamily=Helvetica;html=1;rounded=1;fontStyle=1;strokeWidth=3;fillColor=#E6FFCC" vertex="1" parent="1">
          <mxGeometry x="-136" y="236" width="136.5" height="90" as="geometry" />
        </mxCell>
        <mxCell id="TVN_P2z2MHr8vJ2xY7u7-105" value="Requestor" style="whiteSpace=wrap;align=center;verticalAlign=middle;fontStyle=1;strokeWidth=3;fillColor=#FFFFCC" vertex="1" parent="1">
          <mxGeometry x="-900" y="159" width="90" height="60" as="geometry" />
        </mxCell>
        <mxCell id="TVN_P2z2MHr8vJ2xY7u7-106" value="BU-TA Spec" style="whiteSpace=wrap;align=center;verticalAlign=middle;fontStyle=1;strokeWidth=3;fillColor=#dae8fc;strokeColor=#6c8ebf;" vertex="1" parent="1">
          <mxGeometry x="-900" y="259" width="90" height="60" as="geometry" />
        </mxCell>
        <mxCell id="TVN_P2z2MHr8vJ2xY7u7-107" value="Dev Team" style="whiteSpace=wrap;align=center;verticalAlign=middle;fontStyle=1;strokeWidth=3;fillColor=#e1d5e7;strokeColor=#9673a6;" vertex="1" parent="1">
          <mxGeometry x="-900" y="349" width="90" height="60" as="geometry" />
        </mxCell>
        <mxCell id="TVN_P2z2MHr8vJ2xY7u7-108" value="Confirm fesibility" style="whiteSpace=wrap;align=center;verticalAlign=middle;fontStyle=0;strokeWidth=1;fillColor=#dae8fc;strokeColor=#6c8ebf;" vertex="1" parent="1">
          <mxGeometry x="-403.25" y="380" width="90" height="60" as="geometry" />
        </mxCell>
        <mxCell id="TVN_P2z2MHr8vJ2xY7u7-112" style="edgeStyle=orthogonalEdgeStyle;rounded=0;orthogonalLoop=1;jettySize=auto;html=1;exitX=0.5;exitY=1;exitDx=0;exitDy=0;entryX=0.5;entryY=0;entryDx=0;entryDy=0;" edge="1" parent="1" source="TVN_P2z2MHr8vJ2xY7u7-111" target="TVN_P2z2MHr8vJ2xY7u7-101">
          <mxGeometry relative="1" as="geometry" />
        </mxCell>
        <mxCell id="TVN_P2z2MHr8vJ2xY7u7-111" value="Provide" style="whiteSpace=wrap;align=center;verticalAlign=middle;fontStyle=0;strokeWidth=1;fillColor=#e1d5e7;strokeColor=#9673a6;" vertex="1" parent="1">
          <mxGeometry x="-112.75" y="120" width="90" height="60" as="geometry" />
        </mxCell>
        <mxCell id="TVN_P2z2MHr8vJ2xY7u7-113" value="Confirm" style="whiteSpace=wrap;align=center;verticalAlign=middle;fontStyle=0;strokeWidth=1;fillColor=#FFFFCC;" vertex="1" parent="1">
          <mxGeometry x="-182.75" y="380" width="90" height="60" as="geometry" />
        </mxCell>
        <mxCell id="TVN_P2z2MHr8vJ2xY7u7-115" value="Confirm" style="whiteSpace=wrap;align=center;verticalAlign=middle;fontStyle=0;strokeWidth=1;fillColor=#dae8fc;strokeColor=#6c8ebf;" vertex="1" parent="1">
          <mxGeometry x="-42.75" y="380" width="90" height="60" as="geometry" />
        </mxCell>
        <mxCell id="TVN_P2z2MHr8vJ2xY7u7-118" value="" style="edgeStyle=none;noEdgeStyle=1;strokeColor=#990000;strokeWidth=2;exitX=1;exitY=0.5;exitDx=0;exitDy=0;entryX=0;entryY=0.5;entryDx=0;entryDy=0;" edge="1" parent="1" target="TVN_P2z2MHr8vJ2xY7u7-119" source="TVN_P2z2MHr8vJ2xY7u7-101">
          <mxGeometry width="100" height="100" relative="1" as="geometry">
            <mxPoint x="30" y="281.5" as="sourcePoint" />
            <mxPoint x="160" y="282" as="targetPoint" />
          </mxGeometry>
        </mxCell>
        <mxCell id="TVN_P2z2MHr8vJ2xY7u7-127" style="edgeStyle=orthogonalEdgeStyle;rounded=0;orthogonalLoop=1;jettySize=auto;html=1;entryX=0.5;entryY=0;entryDx=0;entryDy=0;" edge="1" parent="1" source="TVN_P2z2MHr8vJ2xY7u7-119" target="TVN_P2z2MHr8vJ2xY7u7-124">
          <mxGeometry relative="1" as="geometry" />
        </mxCell>
        <mxCell id="TVN_P2z2MHr8vJ2xY7u7-128" style="edgeStyle=orthogonalEdgeStyle;rounded=0;orthogonalLoop=1;jettySize=auto;html=1;entryX=0;entryY=0.5;entryDx=0;entryDy=0;" edge="1" parent="1" source="TVN_P2z2MHr8vJ2xY7u7-119" target="TVN_P2z2MHr8vJ2xY7u7-123">
          <mxGeometry relative="1" as="geometry" />
        </mxCell>
        <mxCell id="TVN_P2z2MHr8vJ2xY7u7-119" value="&lt;p style=&quot;margin: 0px ; margin-top: 4px ; text-align: center ; text-decoration: underline&quot;&gt;&lt;strong&gt;Process 3&lt;br&gt;&lt;/strong&gt;&lt;/p&gt;&lt;hr&gt;&lt;div&gt;Define Testing Scope&lt;/div&gt;&lt;div&gt;for Each FRS&lt;br&gt;&lt;/div&gt;" style="verticalAlign=middle;align=center;overflow=fill;fontSize=12;fontFamily=Helvetica;html=1;rounded=1;fontStyle=1;strokeWidth=3;fillColor=#E6FFCC" vertex="1" parent="1">
          <mxGeometry x="120" y="236" width="136.5" height="90" as="geometry" />
        </mxCell>
        <mxCell id="TVN_P2z2MHr8vJ2xY7u7-120" style="edgeStyle=orthogonalEdgeStyle;rounded=0;orthogonalLoop=1;jettySize=auto;html=1;entryX=0.5;entryY=0;entryDx=0;entryDy=0;" edge="1" parent="1" source="TVN_P2z2MHr8vJ2xY7u7-121" target="TVN_P2z2MHr8vJ2xY7u7-119">
          <mxGeometry relative="1" as="geometry">
            <mxPoint x="175" y="236" as="targetPoint" />
          </mxGeometry>
        </mxCell>
        <mxCell id="TVN_P2z2MHr8vJ2xY7u7-121" value="Define, Confirm" style="whiteSpace=wrap;align=center;verticalAlign=middle;fontStyle=0;strokeWidth=1;fillColor=#FFFFCC;" vertex="1" parent="1">
          <mxGeometry x="143.25" y="120" width="90" height="60" as="geometry" />
        </mxCell>
        <mxCell id="TVN_P2z2MHr8vJ2xY7u7-123" value="Validated, Confirm, transfer to Dev Team " style="whiteSpace=wrap;align=center;verticalAlign=middle;fontStyle=0;strokeWidth=1;fillColor=#dae8fc;strokeColor=#6c8ebf;" vertex="1" parent="1">
          <mxGeometry x="330" y="251.5" width="90" height="60" as="geometry" />
        </mxCell>
        <mxCell id="TVN_P2z2MHr8vJ2xY7u7-124" value="Consider" style="whiteSpace=wrap;align=center;verticalAlign=middle;fontStyle=0;strokeWidth=1;fillColor=#e1d5e7;strokeColor=#9673a6;" vertex="1" parent="1">
          <mxGeometry x="143.25" y="380" width="90" height="60" as="geometry" />
        </mxCell>
      </root>
    </mxGraphModel>
  </diagram>
</mxfile>
